<svg xmlns="http://www.w3.org/2000/svg" viewBox="0 0 459 182"><defs><style>.cls-1{fill:#000000;}</style></defs><title>Asset 2</title><g id="Layer_2" data-name="Layer 2"><g id="Layer_1-2" data-name="Layer 1"><polygon class="cls-1" points="421.53 28.32 421.53 29.21 424.31 29.21 424.31 35.84 425.43 35.84 425.43 29.21 428.21 29.21 428.21 28.32 421.53 28.32"/><path class="cls-1" d="M430.85,31.4c0-.17,0-.45,0-.83s0-.66,0-.84v-.23l2.37,6.35h1.11l2.35-6.35c0,.42,0,.8,0,1.15s0,.61,0,.76v4.45h1.07V28.32h-1.59l-2.35,6.37-2.37-6.37H429.8v7.53h1.05Z"/><path class="cls-1" d="M443.44,137.35l-.08-.3L415.16,28.26H379.09v.47l14.75,11.34L366,137.35l-15.56,11.37v.47h43.27v-.47l-12.67-10,7.68-28.89H410L416.68,139l-12.32,9.76v.47H459v-.47ZM392,97.57l7.87-29.64h.56l6.78,29.64Z"/><path class="cls-1" d="M361.95,8.69c0-6-5.94-8.29-12.62-8.29h-6.8V.46l2.66,1.4V15.52l-2.66,1.4V17h6.8c6.85,0,12.62-2.27,12.62-8.3M350.12,2.12c3.84,0,6.7,2.21,6.7,6.56s-2.86,6.57-6.7,6.57Z"/><polygon class="cls-1" points="234.85 9.58 234.85 9.42 234.75 9.58 231.29 15.32 226.36 15.32 226.36 9.29 228.63 9.29 231 11.51 231.09 11.51 231.09 5.53 231 5.53 228.63 7.63 226.36 7.63 226.36 2.06 231.19 2.06 234.76 6.65 234.85 6.65 234.85 0.41 218.77 0.41 218.77 0.46 221.43 1.86 221.43 15.52 218.77 16.92 218.77 16.98 234.85 16.98 234.85 9.58"/><polygon class="cls-1" points="281.02 9.58 281.02 9.42 280.92 9.58 277.47 15.32 272.54 15.32 272.54 9.29 274.81 9.29 277.18 11.51 277.27 11.51 277.27 5.53 277.18 5.53 274.81 7.63 272.54 7.63 272.54 2.06 277.37 2.06 280.93 6.65 281.02 6.65 281.02 0.41 264.95 0.41 264.95 0.46 267.61 1.86 267.61 15.52 264.95 16.92 264.95 16.98 281.02 16.98 281.02 9.58"/><polygon class="cls-1" points="318.98 9.58 318.98 9.42 318.88 9.58 315.42 15.32 310.49 15.32 310.49 9.29 312.76 9.29 315.13 11.51 315.23 11.51 315.23 5.53 315.13 5.53 312.76 7.63 310.49 7.63 310.49 2.06 315.32 2.06 318.89 6.65 318.98 6.65 318.98 0.41 302.9 0.41 302.9 0.46 305.56 1.86 305.56 15.52 302.9 16.92 302.9 16.98 318.98 16.98 318.98 9.58"/><polygon class="cls-1" points="400.61 16.92 397.95 15.52 397.95 9.55 400.21 9.55 402.59 11.9 402.68 11.9 402.68 5.66 402.59 5.66 400.21 7.9 397.95 7.9 397.95 2.06 402.79 2.06 406.34 6.65 406.43 6.65 406.43 0.4 390.36 0.4 390.36 0.46 393.02 1.86 393.02 15.52 390.36 16.92 390.36 16.98 400.61 16.98 400.61 16.92"/><path class="cls-1" d="M293.41,17.38a12.76,12.76,0,0,0,4.62-.85l2,.85V9.15l2.66-1.39V7.7H293v.06l2.66,1.39v5.91a4.46,4.46,0,0,1-2.24.59c-3.31,0-4.93-2.61-4.93-7s1.7-7,4.93-7c2.41,0,4.43,2.11,6.56,4.52h.1V0l-2.23.93A9.93,9.93,0,0,0,293.41,0c-5.53,0-10.06,2.66-10.06,8.69s4.52,8.69,10.06,8.69"/><polygon class="cls-1" points="206.66 16.92 203.99 15.52 203.99 9.29 210.21 9.29 210.21 15.52 207.55 16.92 207.55 16.98 217.8 16.98 217.8 16.92 215.14 15.52 215.14 1.86 217.8 0.46 217.8 0.4 207.55 0.4 207.55 0.46 210.21 1.86 210.21 7.63 203.99 7.63 203.99 1.86 206.66 0.46 206.66 0.4 196.4 0.4 196.4 0.46 199.06 1.86 199.06 15.52 196.4 16.92 196.4 16.98 206.66 16.98 206.66 16.92"/><polygon class="cls-1" points="263.37 8.28 263.27 8.28 259.43 15.32 255.53 15.32 255.53 1.86 258.34 0.46 258.34 0.4 247.93 0.4 247.93 0.46 250.59 1.86 250.59 15.52 247.93 16.92 247.93 16.98 263.37 16.98 263.37 8.28"/><polygon class="cls-1" points="330.07 16.92 327.41 15.52 327.41 6.18 338.9 17.21 339 17.21 339 1.86 341.66 0.46 341.66 0.4 332.89 0.4 332.89 0.46 335.55 1.86 335.55 8.21 327.41 0.4 321.29 0.4 321.29 0.46 323.95 1.86 323.95 15.52 321.29 16.92 321.29 16.98 330.07 16.98 330.07 16.92"/><path class="cls-1" d="M380.45,17.38c5.1,0,9.56-2.67,9.56-8.69S385.2,0,380.45,0s-9.56,2.67-9.56,8.69,4.46,8.69,9.56,8.69m0-15.65c3.49,0,4.53,2.61,4.53,7s-1.38,7-4.53,7-4.53-2.61-4.53-7,1-7,4.53-7"/><polygon class="cls-1" points="382.74 8.69 380.45 5.26 378.17 8.69 380.45 12.12 382.74 8.69"/><polygon class="cls-1" points="180.69 2.06 183.75 2.06 183.75 15.52 181.08 16.92 181.08 16.98 191.34 16.98 191.34 16.92 188.67 15.52 188.67 2.06 191.74 2.06 194.9 6.97 194.99 6.97 194.99 0.4 177.43 0.4 177.43 6.97 177.53 6.97 180.69 2.06"/><path class="cls-1" d="M371.85,88.73c0-37.74-18.21-60.46-52.82-60.46h-32.2v.47L302.39,40.1v97.25l-10.71,7.83V91.37h-.48l-17.74,46H261.61V40.1l15.56-11.37v-.47H145.31v.47L160.87,40.1v96.38l-33.41,29.4H50.32L159.92.44H17.72L0,47.69H.65L41.46,16.11h71.91L3.47,182h142.3l12.3-32.81H319c34.62,0,52.82-22.72,52.82-60.46M325.38,39.51c6,0,23.66,9.82,23.66,49.22s-17.68,49.22-23.66,49.22Zm-233.9,26,41.6-51.91L101.86,70.54,91.14,75.87ZM85.72,83.88l1.61,11-12.1,4.86L74.08,88.54ZM59.22,113l10.7-5.34L69.58,118,28,169.94Zm164.66,33.53V91.44h-.47l-17.38,46H184.35V93.35h12.11l12.46,17.08V66.14L196.5,81.56H184.35V38.74h21.76l17.3,37.5h.47V30.88L236.5,40.1v97.25Z"/></g></g></svg>